<svg viewBox="-0.5 -0.5 16 16" fill="#606060" xmlns="http://www.w3.org/2000/svg" id="E-Bike-Line--Streamline-Remix.svg" height="16" width="16"><desc>E Bike Line Streamline Icon: https://streamlinehq.com</desc><path d="M9.687875 4.33553125C10.995375000000001 5.09204375 11.875 6.5058125 11.875 8.125v5h-2.6066875c-0.257375 0.7282500000000001 -0.9519374999999999 1.25 -1.7683125 1.25s-1.5109125 -0.5217499999999999 -1.76830625 -1.25H3.125v-5c0 -1.6191875 0.8796312500000001 -3.0329562500000002 2.1871 -3.78946875C5.210962500000001 4.153124999999999 5.13196875 3.9567375 5.0787625 3.75H3.125V2.5h1.9537625C5.3562875 1.4217312500000001 6.335125000000001 0.625 7.5 0.625s2.1436875 0.79673125 2.42125 1.875H11.875v1.25h-1.9537499999999999c-0.05325 0.20673750000000002 -0.13218749999999999 0.403125 -0.233375 0.58553125Zm-0.90825 0.9376125000000001C8.405249999999999 5.49660625 7.967625 5.625 7.5 5.625c-0.46762499999999996 0 -0.9052499999999999 -0.12839375 -1.27960625 -0.35185625C5.13254375 5.7620125 4.375 6.8550625 4.375 8.125v3.75h1.25v-2.5c0 -1.0355625 0.8394375 -1.875 1.875 -1.875s1.875 0.8394375 1.875 1.875v2.5h1.25v-3.75c0 -1.2699375 -0.7575624999999999 -2.3629875 -1.845375 -2.85185625ZM7.5 8.75c-0.3451875 0 -0.625 0.2798125 -0.625 0.625v3.125c0 0.3451875 0.2798125 0.625 0.625 0.625s0.625 -0.2798125 0.625 -0.625v-3.125c0 -0.3451875 -0.2798125 -0.625 -0.625 -0.625Zm0 -4.375c0.690375 0 1.25 -0.55964375 1.25 -1.25s-0.559625 -1.25 -1.25 -1.25 -1.25 0.55964375 -1.25 1.25 0.559625 1.25 1.25 1.25Z" stroke-width="1"></path></svg>