<svg xmlns="http://www.w3.org/2000/svg" fill="none" viewBox="0 0 24 24" id="Campfires--Streamline-Guidance-Free.svg" height="24" width="24"><desc>Campfires Streamline Icon: https://streamlinehq.com</desc><path stroke="#606060" d="M0.5 17 9 19.402m6 1.696 8.5 2.402m-23 0 23 -6.5M12 17c-3.276 0 -6.098 -2.656 -6.098 -5.931 0 -1.702 0.731 -3.322 2.007 -4.448l1.94 -1.712C11.109 3.798 11.887 2.173 12 0.5h0.359c1.082 1.392 1.431 3.117 1.478 4.63 0.055 1.76 1.484 3.453 3.24 3.296l0.382 -0.034a5.93 5.93 0 0 1 0.639 2.678c0 3.274 -2.822 5.93 -6.098 5.93Zm0 0c1.542 0 2.87 -1.27 2.87 -2.836a2.86 2.86 0 0 0 -0.945 -2.127l-0.913 -0.818c-0.653 -0.676 -0.832 -1.391 -0.832 -1.391h-0.36s-0.179 0.715 -0.832 1.39l-0.913 0.82a2.856 2.856 0 0 0 -0.945 2.126C9.13 15.73 10.46 17 12 17Z" stroke-width="1"></path></svg>