<svg xmlns="http://www.w3.org/2000/svg" viewBox="-0.5 -0.5 16 16" id="Car-3-Fill--Streamline-Mingcute-Fill.svg" height="16" width="16"><desc>Car 3 Fill Streamline Icon: https://streamlinehq.com</desc><g fill="none" fill-rule="evenodd"><path d="M15 0v15H0V0h15ZM7.870625 14.536249999999999l-0.006874999999999999 0.00125 -0.044375 0.021875000000000002 -0.0125 0.0025 -0.00875 -0.0025 -0.044375 -0.021875000000000002c-0.00625 -0.0025 -0.011875 -0.000625 -0.015 0.003125l-0.0025 0.00625 -0.010625 0.2675 0.003125 0.0125 0.00625 0.008125 0.065 0.04625 0.009375 0.0025 0.0075 -0.0025 0.065 -0.04625 0.0075 -0.01 0.0025 -0.010625 -0.010625 -0.266875c-0.00125 -0.00625 -0.005625 -0.010625 -0.010625 -0.01125Zm0.16562500000000002 -0.07062500000000001 -0.008125 0.00125 -0.115625 0.058124999999999996 -0.00625 0.00625 -0.001875 0.006874999999999999 0.01125 0.26875 0.003125 0.0075 0.005 0.004375 0.12562500000000001 0.058124999999999996c0.0075 0.0025 0.014374999999999999 0 0.018125000000000002 -0.005l0.0025 -0.00875 -0.02125 -0.38375c-0.001875 -0.0075 -0.00625 -0.0125 -0.0125 -0.013749999999999998Zm-0.44687499999999997 0.00125a0.014374999999999999 0.014374999999999999 0 0 0 -0.016875 0.00375l-0.00375 0.00875 -0.02125 0.38375c0 0.0075 0.004375 0.0125 0.010625 0.015l0.009375 -0.00125 0.12562500000000001 -0.058124999999999996 0.00625 -0.005 0.0025 -0.006874999999999999 0.010625 -0.26875 -0.001875 -0.0075 -0.00625 -0.00625 -0.11499999999999999 -0.057499999999999996Z" stroke-width="1"></path><path fill="#606060" d="M5.1 2.5a1.875 1.875 0 0 0 -1.6275 0.9450000000000001L2.226875 5.625H1.5a0.25 0.25 0 0 0 -0.25 0.25v0.296875a0.5 0.5 0 0 0 0.37875 0.48562500000000003l0.015 0.003125a3.125 3.125 0 0 0 -0.285625 1.74375l0.453125 3.6256250000000003A1.25 1.25 0 0 0 3.051875 13.125H3.125a1.25 1.25 0 0 0 1.25 -1.25h6.25a1.25 1.25 0 0 0 1.25 1.25h0.07312500000000001a1.25 1.25 0 0 0 1.240625 -1.095l0.453125 -3.625a3.125 3.125 0 0 0 -0.285625 -1.74375l0.015 -0.00375A0.5 0.5 0 0 0 13.75 6.171875V5.875a0.25 0.25 0 0 0 -0.25 -0.25h-0.726875l-1.245625 -2.18A1.875 1.875 0 0 0 9.9 2.5H5.100625Zm6.41375 3.4399999999999995 -1.07125 -1.875A0.625 0.625 0 0 0 9.899375000000001 3.75H5.100625a0.625 0.625 0 0 0 -0.543125 0.315l-1.07125 1.875A0.625 0.625 0 0 0 4.02875 6.875h6.942500000000001a0.625 0.625 0 0 0 0.5425 -0.935ZM3.125 9.399375v-0.4375a0.3125 0.3125 0 0 1 0.46125 -0.275l1.71375 0.925c0.233125 0.12625 0.13625 0.480625 -0.12875 0.47l-1.44625 -0.058124999999999996A0.625 0.625 0 0 1 3.125 9.399999999999999Zm8.75 -0.4375v0.4375a0.625 0.625 0 0 1 -0.6 0.625l-1.44625 0.057499999999999996c-0.265 0.010625 -0.3625 -0.34375 -0.12875 -0.47l1.71375 -0.925a0.3125 0.3125 0 0 1 0.46125 0.275Z" stroke-width="1"></path></g></svg>