<svg width="44" height="43" viewBox="0 0 44 43" fill="none" xmlns="http://www.w3.org/2000/svg">
<g filter="url(#filter0_d_0_1)">
<rect x="2" width="40" height="40" rx="20" fill="#60A5FA"/>
<rect x="2.15" y="0.15" width="39.7" height="39.7" rx="19.85" stroke="#60A5FA" stroke-width="0.3"/>
</g>
<path d="M14.2082 18.4583C14.2082 13.856 17.9388 10.125 22.5408 10.125C27.1428 10.125 30.8734 13.856 30.8734 18.4583C30.8734 19.6563 30.6207 20.7952 30.1656 21.8246L30.875 26.7909L26.6193 25.7269C25.4138 26.4049 24.0224 26.7917 22.5408 26.7917M12.126 23.6667C12.126 24.4154 12.2839 25.1272 12.5683 25.7706L12.125 28.8745L14.7845 28.2095C15.5379 28.6333 16.4074 28.875 17.3334 28.875C20.2094 28.875 22.5408 26.5431 22.5408 23.6667C22.5408 20.7902 20.2094 18.4583 17.3334 18.4583C14.4574 18.4583 12.126 20.7902 12.126 23.6667Z" stroke="white" stroke-width="1.6" stroke-linecap="round" stroke-linejoin="round"/>
<defs>
<filter id="filter0_d_0_1" x="0.8" y="0" width="42.4" height="42.4" filterUnits="userSpaceOnUse" color-interpolation-filters="sRGB">
<feFlood flood-opacity="0" result="BackgroundImageFix"/>
<feColorMatrix in="SourceAlpha" type="matrix" values="0 0 0 0 0 0 0 0 0 0 0 0 0 0 0 0 0 0 127 0" result="hardAlpha"/>
<feOffset dy="1.2"/>
<feGaussianBlur stdDeviation="0.6"/>
<feComposite in2="hardAlpha" operator="out"/>
<feColorMatrix type="matrix" values="0 0 0 0 0 0 0 0 0 0 0 0 0 0 0 0 0 0 0.25 0"/>
<feBlend mode="normal" in2="BackgroundImageFix" result="effect1_dropShadow_0_1"/>
<feBlend mode="normal" in="SourceGraphic" in2="effect1_dropShadow_0_1" result="shape"/>
</filter>
</defs>
</svg>
