<svg xmlns="http://www.w3.org/2000/svg" viewBox="-0.5 -0.5 16 16" fill="#606060" id="Currency-Cny--Streamline-Phosphor.svg" height="16" width="16"><desc>Currency Cny Streamline Icon: https://streamlinehq.com</desc><path d="M1.9875 2.293751953125c0 -0.33827929687499997 0.27422460937500004 -0.6125039062500001 0.612498046875 -0.6125039062500001h9.80000390625c0.4714980468750001 0 0.766189453125 0.510416015625 0.5304375 0.91875 -0.10940625 0.18950390625 -0.311625 0.306240234375 -0.5304375 0.30625195312500003H2.599998046875c-0.33828515625 0.000017578125 -0.612498046875 -0.274212890625 -0.612498046875 -0.612498046875ZM14.237501953125001 10.25625c-0.33828515625 -0.000017578125 -0.6125039062500001 0.274212890625 -0.6125039062500001 0.612498046875V12.09375H11.175c-0.676546875 0 -1.225001953125 -0.5484492187500001 -1.225001953125 -1.225001953125v-3.675h3.675c0.47150390625000005 0 0.7661953125 -0.510416015625 0.530443359375 -0.91875 -0.10940625 -0.18949804687500002 -0.311625 -0.306240234375 -0.530443359375 -0.30624609375H1.375001953125c-0.47150390625000005 -0.0000234375 -0.766189453125 0.510380859375 -0.530455078125 0.9187265625000001 0.10940625 0.18952148437500002 0.311619140625 0.30626953125 0.530455078125 0.30626953125h3.675v0.6125039062500001c-0.00253125 2.366865234375 -1.9206328124999998 4.284960937499999 -4.28750390625 4.287498046875 -0.4714980468750001 0 -0.766189453125 0.510416015625 -0.5304375 0.91875 0.109412109375 0.18950976562500002 0.31161328125 0.30625195312500003 0.5304375 0.30625195312500003 3.0430722656249998 -0.003380859375 5.509125 -2.4694335937500003 5.5125 -5.5125v-0.6125039062500001h2.45000390625v3.675c0 1.353140625 1.096857421875 2.4500625 2.449998046875 2.45000390625h3.062501953125c0.33826171875 -0.000017578125 0.612498046875 -0.274236328125 0.612498046875 -0.6125039062500001v-1.8375c0 -0.33826171875 -0.274236328125 -0.61248046875 -0.612498046875 -0.612498046875Z" stroke-width="1"></path></svg>