<svg id="Ship-Cruise--Streamline-Atlas.svg" xmlns="http://www.w3.org/2000/svg" viewBox="-0.5 -0.5 16 16" height="16" width="16"><desc>Ship Cruise Streamline Icon: https://streamlinehq.com</desc><defs></defs><path d="m3.4875 13.21875 -1.71875 -4.5875 8.025 0 0.56875 -0.56875 2.86875 0 -1.71875 5.15625" fill="none" stroke="#606060" stroke-miterlimit="10" stroke-width="1"></path><path d="M5.78125 10.925Z" fill="none" stroke="#606060" stroke-miterlimit="10" stroke-width="1"></path><path d="M8.075 10.925Z" fill="none" stroke="#606060" stroke-miterlimit="10" stroke-width="1"></path><path d="m9.21875 10.925 1.14375 0" fill="none" stroke="#606060" stroke-miterlimit="10" stroke-width="1"></path><path d="M2.91875 8.63125 4.0625 5.768750000000001l6.875 0 1.14375 2.29375" fill="none" stroke="#606060" stroke-miterlimit="10" stroke-width="1"></path><path d="M5.20625 3.4749999999999996h4.58125v2.29375H5.20625Z" fill="none" stroke="#606060" stroke-miterlimit="10" stroke-width="1"></path><path d="m6.35625 1.1875 0 2.2875" fill="none" stroke="#606060" stroke-miterlimit="10" stroke-width="1"></path><path d="m8.64375 1.1875 0 2.2875" fill="none" stroke="#606060" stroke-miterlimit="10" stroke-width="1"></path><path d="m5.78125 7.487500000000001 0 1.14375" fill="none" stroke="#606060" stroke-miterlimit="10" stroke-width="1"></path><path d="m8.075 7.487500000000001 0 1.14375" fill="none" stroke="#606060" stroke-miterlimit="10" stroke-width="1"></path><path d="M0.625 12.64375a2.15 2.15 0 0 0 3.4375 0 2.1437500000000003 2.1437500000000003 0 0 0 3.4312500000000004 0 2.1375 2.1375 0 0 0 3.4312500000000004 0 2.1437500000000003 2.1437500000000003 0 0 0 3.4312500000000004 0" fill="none" stroke="#606060" stroke-miterlimit="10" stroke-width="1"></path></svg>