<svg width="116" height="116" viewBox="0 0 116 116" fill="none" xmlns="http://www.w3.org/2000/svg">
<path d="M18.9499 100.6C21.6785 97.544 34.4578 83.4811 38.2028 83.4811H77.7995C83.2263 83.4811 94.3045 95.1383 97.0499 99.2474M114.8 57.9999C114.8 89.3697 89.3697 114.8 57.9999 114.8C26.6302 114.8 1.19995 89.3697 1.19995 57.9999C1.19995 26.6302 26.6302 1.19995 57.9999 1.19995C89.3697 1.19995 114.8 26.6302 114.8 57.9999ZM78.3464 38.6404C78.3464 27.8039 69.1984 18.9499 58.0016 18.9499C46.8051 18.9499 37.6569 27.8039 37.6569 38.6404C37.6569 49.4768 46.8051 58.3308 58.0016 58.3308C69.1982 58.3308 78.3464 49.4768 78.3464 38.6404Z" stroke="black" stroke-width="2"/>
</svg>
