<svg xmlns="http://www.w3.org/2000/svg" viewBox="-0.5 -0.5 16 16" fill="#606060" id="Steering-Wheel-Light--Streamline-Phosphor.svg" height="16" width="16"><desc>Steering Wheel Light Streamline Icon: https://streamlinehq.com</desc><path d="M7.5 0.15C1.84196484375 0.14974804687499998 -1.6942499999999998 6.274587890625 1.13455078125 11.174712890625c2.828794921875 4.900130859375 9.9013359375 4.900447265625 12.730570312500001 0.00057421875C14.510326171875 10.057875000000001 14.85 8.790304687499999 14.85 7.5 14.845236328125 3.442681640625 11.557318359375 0.154763671875 7.5 0.15ZM1.622162109375 10.238232421874999h3.17058984375c0.060041015625 0.00010546875 0.11373046875000001 0.0374296875 0.134748046875 0.0936796875l1.320837890625 3.5308828125c-2.030912109375 -0.403318359375 -3.7486406249999997 -1.749134765625 -4.62617578125 -3.6245625Zm7.124455078125 3.6260039062500002 1.323720703125 -3.5308828125c0.021111328125000002 -0.05649609375 0.07516406249999999 -0.093873046875 0.13546875 -0.0936796875h3.17058984375c-0.8781679687499999 1.87639453125 -2.597466796875 3.2223984375000003 -4.629779296875 3.6245625Zm4.96269140625 -4.49070703125h-3.5035019531250002c-0.42065625 0.000029296875 -0.7971562499999999 0.261076171875 -0.9446894531249999 0.655013671875l-1.4808105468750001 3.950267578125c-0.092953125 0.00432421875 -0.1866328125 0.00648046875 -0.280306640625 0.00648046875s-0.189515625 0 -0.28391015625 -0.00648046875l-1.4772070312499999 -3.9495468750000002c-0.14832421875000001 -0.393427734375 -0.5242382812499999 -0.654357421875 -0.9446894531249999 -0.655734375H1.29069140625c-0.04683984375 -0.15636914062499999 -0.088634765625 -0.31489453125 -0.12394335937499999 -0.47630859374999995 3.45815625 -3.59208984375 9.20834765625 -3.59208984375 12.66650390625 0 -0.03530859375 0.16141406249999998 -0.07710351562500001 0.319939453125 -0.12394335937499999 0.47630859374999995ZM7.5 5.338236328125c-2.39315625 0.0031171874999999997 -4.700390625 0.8923300781250001 -6.476648437500001 2.4961171875 -0.0086484375 -0.110970703125 -0.0086484375 -0.22194140625 -0.0086484375 -0.334353515625 0 -4.992380859375 5.4044121093749995 -8.11262109375 9.7279453125 -5.616427734375C12.749203125 3.04205859375 13.985296875 5.18302734375 13.985296875 7.5c0 0.112412109375 0 0.2233828125 -0.0086484375 0.334353515625C12.200390625 6.2305664062499995 9.89315625 5.341353515624999 7.5 5.338236328125Zm0.7205859375 3.026466796875c0 0.5547128906250001 -0.600486328125 0.90140625 -1.08087890625 0.624052734375 -0.480392578125 -0.277359375 -0.480392578125 -0.97074609375 0 -1.2480996093749999 0.109541015625 -0.06324609375 0.23380078125 -0.0965390625 0.36029296875 -0.0965390625 0.39796875 0 0.7205859375 0.3226171875 0.7205859375 0.7205859375Z" stroke-width="1"></path></svg>