<svg xmlns="http://www.w3.org/2000/svg" viewBox="-0.5 -0.5 16 16" id="Flag-Usa--Streamline-Font-Awesome.svg" height="16" width="16"><desc>Flag Usa Streamline Icon: https://streamlinehq.com</desc><!--! Font Awesome Free 6.5.2 by @fontawesome - https://fontawesome.com License - https://fontawesome.com/license/free (Icons: CC BY 4.0, Fonts: SIL OFL 1.1, Code: MIT License) Copyright 2024 Fonticons, Inc.--><path d="M1.9874999999999998 0.15000000000000002c0.5081819196428571 0 0.9187500000000001 0.4105680803571428 0.9187500000000001 0.9187500000000001v0.45937500000000003l1.9810546875 -0.493828125c1.0938883928571428 -0.27275223214285715 2.248068080357143 -0.14642410714285714 3.258693080357143 0.35888839285714286 1.3293147321428571 0.6660937499999999 2.894059151785714 0.6660937499999999 4.223377232142857 0l0.27562499999999995 -0.13781249999999998c0.5914453125 -0.29859375 1.28625 0.1320703125 1.28625 0.792421875v1.0364631696428572l-1.283377232142857 0.46511718750000003c-1.228828125 0.447890625 -2.583984375 0.3990837053571428 -3.7783593749999995 -0.1320703125l-0.46224776785714283 -0.20671875c-0.5828303571428571 -0.2583984375 -1.2001171874999998 -0.42204910714285715 -1.826015625 -0.4852131696428571v0.9244921875c0.4995703125 0.06029129464285714 0.98765625 0.19236160714285713 1.4527734374999999 0.3990803571428571l0.46224776785714283 0.20671875c1.412578125 0.6287712053571428 3.0146484374999996 0.6833203125 4.467421874999999 0.1550390625l0.9675569196428572 -0.34740066964285715v1.780078125l-1.283377232142857 0.46511718750000003c-1.228828125 0.447890625 -2.583984375 0.3990803571428571 -3.7783593749999995 -0.1320703125l-0.46224776785714283 -0.20671875c-1.1541796874999999 -0.5139274553571428 -2.4404296875 -0.6459977678571429 -3.6778694196428567 -0.38185714285714284L2.90625 5.9811930803571425v0.9388459821428571l2.0155078125 -0.43353348214285714c1.045078125 -0.2239453125 2.1332243303571428 -0.11197433035714285 3.112265625 0.3244319196428571l0.46224776785714283 0.20671875c1.412578125 0.6287712053571428 3.014645089285714 0.6833203125 4.467418526785714 0.1550390625l0.9675602678571429 -0.35314285714285715v1.780078125l-1.2833805803571428 0.46511718750000003c-1.228828125 0.447890625 -2.583981026785714 0.3990803571428571 -3.7783593749999995 -0.1320703125l-0.4622444196428571 -0.20671875c-1.1541796874999999 -0.5139274553571428 -2.4404296875 -0.6459977678571429 -3.6778694196428567 -0.38185714285714284L2.90625 8.737443080357142v0.9388459821428571l2.0155078125 -0.43353348214285714c1.045078125 -0.2239453125 2.1332243303571428 -0.11197433035714285 3.112265625 0.3244319196428571l0.46224776785714283 0.20671875c1.412578125 0.6287712053571428 3.014645089285714 0.6833203125 4.467418526785714 0.1550390625l0.9675602678571429 -0.35314285714285715v0.9618147321428571c0 0.38185714285714284 -0.23830245535714287 0.7263883928571429 -0.5971875 0.861328125l-0.996267857142857 0.37324218750000004c-1.3264486607142856 0.4967008928571428 -2.8021908482142854 0.4191796875 -4.068341517857143 -0.2124609375 -1.0881462053571427 -0.5455078125 -2.3342008928571425 -0.6804475446428572 -3.5170915178571427 -0.38472656250000004L2.90625 11.634375v2.2968749999999996c0 0.5081852678571428 -0.4105680803571428 0.9187500000000001 -0.9187500000000001 0.9187500000000001s-0.9187500000000001 -0.4105647321428571 -0.9187500000000001 -0.9187500000000001V1.06875c0 -0.5081819196428571 0.4105647321428571 -0.9187500000000001 0.9187500000000001 -0.9187500000000001Zm2.2968749999999996 2.7562499999999996c0 -0.3536283482142857 -0.3828113839285714 -0.5746439732142857 -0.6890624999999999 -0.3978314732142857 -0.14213169642857143 0.08206138392857142 -0.22968750000000002 0.23371205357142857 -0.22968750000000002 0.3978314732142857 0 0.3536283482142857 0.3828113839285714 0.5746439732142857 0.6890624999999999 0.3978314732142857 0.14213169642857143 -0.08206138392857142 0.22968750000000002 -0.23371205357142857 0.22968750000000002 -0.3978314732142857Zm0.9187500000000001 0c0.3536283482142857 0.00001674107142857143 0.574640625 -0.38278794642857145 0.39784151785714283 -0.6890457589285713 -0.08206138392857142 -0.1421450892857143 -0.23370870535714286 -0.2297109375 -0.39784151785714283 -0.22970424107142856 -0.3536283482142857 -0.00001674107142857143 -0.574640625 0.38278794642857145 -0.39784151785714283 0.6890457589285713 0.08206138392857142 0.1421450892857143 0.23370870535714286 0.2297109375 0.39784151785714283 0.22970424107142856Zm-0.9187500000000001 1.3781249999999998c0 -0.3536283482142857 -0.3828113839285714 -0.5746439732142857 -0.6890624999999999 -0.3978314732142857 -0.14213169642857143 0.08206138392857142 -0.22968750000000002 0.23371205357142857 -0.22968750000000002 0.3978314732142857 0 0.3536283482142857 0.3828113839285714 0.5746439732142857 0.6890624999999999 0.3978314732142857 0.14213169642857143 -0.08206138392857142 0.22968750000000002 -0.23371205357142857 0.22968750000000002 -0.3978314732142857Zm0.9187500000000001 0c0.3536283482142857 0.00001674107142857143 0.574640625 -0.38278794642857145 0.39784151785714283 -0.6890457589285713 -0.08206138392857142 -0.1421450892857143 -0.23370870535714286 -0.2297109375 -0.39784151785714283 -0.22970424107142856 -0.3536283482142857 -0.00001674107142857143 -0.574640625 0.38278794642857145 -0.39784151785714283 0.6890457589285713 0.08206138392857142 0.1421450892857143 0.23370870535714286 0.2297109375 0.39784151785714283 0.22970424107142856Z" fill="#606060" stroke-width="1"></path></svg>