<svg id="Construction-Tools--Streamline-Atlas.svg" xmlns="http://www.w3.org/2000/svg" viewBox="-0.5 -0.5 16 16" height="16" width="16"><desc>Construction Tools Streamline Icon: https://streamlinehq.com</desc><defs></defs><path d="m4.22114402 8.99376307525 4.7729707730625 -4.772970773 1.7898640398749999 1.7898640398749999 -4.772970773 4.772970773Z" fill="none" stroke="#606060" stroke-miterlimit="10" stroke-width="1"></path><path d="M9.2875 3.325a2.3874999999999997 2.3874999999999997 0 1 0 4.7749999999999995 0 2.3874999999999997 2.3874999999999997 0 1 0 -4.7749999999999995 0" fill="none" stroke="#606060" stroke-miterlimit="10" stroke-width="1"></path><path d="M0.9375 11.675a2.3874999999999997 2.3874999999999997 0 1 0 4.7749999999999995 0 2.3874999999999997 2.3874999999999997 0 1 0 -4.7749999999999995 0" fill="none" stroke="#606060" stroke-miterlimit="10" stroke-width="1"></path><path d="M7.5 5.7125 5.7125 7.5 3.9187499999999997 5.7125H2.725A1.7937500000000002 1.7937500000000002 0 0 1 0.9375 3.9187499999999997V2.725l0.25 0.25A1.3125 1.3125 0 0 0 2.9312500000000004 3.125a1.25 1.25 0 0 0 0.09375 -1.875l-0.3 -0.3125h1.1937499999999999a1.7937500000000002 1.7937500000000002 0 0 1 1.7937500000000002 1.7874999999999999v1.1937499999999999Z" fill="none" stroke="#606060" stroke-miterlimit="10" stroke-width="1"></path><path d="M12.275 9.2875a1.7937500000000002 1.7937500000000002 0 0 1 1.7874999999999999 1.7937500000000002v1.1937499999999999l-0.25 -0.25a1.3125 1.3125 0 0 0 -1.74375 -0.15 1.25 1.25 0 0 0 -0.09375 1.875l0.3 0.3h-1.1937499999999999a1.7937500000000002 1.7937500000000002 0 0 1 -1.7937500000000002 -1.7874999999999999v-1.18125L7.5 9.2875 9.2875 7.5l1.7937500000000002 1.7874999999999999Z" fill="none" stroke="#606060" stroke-miterlimit="10" stroke-width="1"></path></svg>