<svg xmlns="http://www.w3.org/2000/svg" fill="none" viewBox="0 0 48 48" id="Golf-Sharp--Streamline-Ionic-Sharp.svg" height="48" width="48"><desc>Golf Sharp Streamline Icon: https://streamlinehq.com</desc><path fill="#606060" d="M22.5 1.49951V17.9676l0 0.0657v12.0103c0.5 -0.0294 1 -0.0441 1.5 -0.0441s1 0.0147 1.5 0.0441V18.9651L42 10.4995 22.5 1.49951Z" stroke-width="1"></path><path fill="#606060" d="M43.3983 42.8901c-0.8006 -4.0171 -3.2812 -7.3818 -7.1831 -9.7312 -3.0403 -1.8328 -6.7997 -2.9344 -10.7147 -3.1594v8.9803h-3v-8.9803c-3.9178 0.225 -7.6772 1.3266 -10.7175 3.1594 -3.89903 2.3494 -6.38247 5.7141 -7.1831 9.7312 -0.1875 0.9197 -0.06375 3.6094 -0.06375 3.6094H43.4621s0.12 -2.6897 -0.0638 -3.6094Z" stroke-width="1"></path></svg>