<svg id="Handshake-Agreement-Deal--Streamline-Atlas.svg" xmlns="http://www.w3.org/2000/svg" viewBox="-0.5 -0.5 16 16" height="16" width="16"><desc>Handshake Agreement Deal Streamline Icon: https://streamlinehq.com</desc><defs></defs><path d="M1.225 2.43125a1.4937500000000001 1.4937500000000001 0 1 0 2.9875000000000003 0 1.4937500000000001 1.4937500000000001 0 1 0 -2.9875000000000003 0" fill="none" stroke="#606060" stroke-miterlimit="10" stroke-width="1"></path><path d="m3.9124999999999996 14.6875 0 -4.78125 0.6 -0.6 0 -4.18125 -3.5875000000000004 0 0 4.18125 0.6 0.6 0 4.78125" fill="none" stroke="#606060" stroke-miterlimit="10" stroke-width="1"></path><path d="M10.787500000000001 2.43125a1.4937500000000001 1.4937500000000001 0 1 0 2.9875000000000003 0 1.4937500000000001 1.4937500000000001 0 1 0 -2.9875000000000003 0" fill="none" stroke="#606060" stroke-miterlimit="10" stroke-width="1"></path><path d="m13.48125 14.6875 0 -4.78125 0.59375 -0.6 0 -4.18125 -3.5875000000000004 0 0 4.18125 0.6 0.6 0 4.78125" fill="none" stroke="#606060" stroke-miterlimit="10" stroke-width="1"></path><path d="m4.5125 5.125 0.59375 0 1.7937500000000002 3.5875000000000004 1.2 0 1.7937500000000002 -3.5875000000000004 0.59375 0" fill="none" stroke="#606060" stroke-miterlimit="10" stroke-width="1"></path></svg>