<svg xmlns="http://www.w3.org/2000/svg" viewBox="-0.5 -0.5 16 16" id="Wheelchair--Streamline-Atlas.svg" height="16" width="16"><desc>Wheelchair Streamline Icon: https://streamlinehq.com</desc><defs></defs><g id="Chairwheel"><path d="M0.9125 10.493749999999999a3.59375 3.59375 0 1 0 7.1875 0 3.59375 3.59375 0 1 0 -7.1875 0" fill="none" stroke="#606060" stroke-miterlimit="10" stroke-width="1"></path><path d="M9.89375 12.893749999999999a1.2 1.2 0 1 0 2.4 0 1.2 1.2 0 1 0 -2.4 0" fill="none" stroke="#606060" stroke-miterlimit="10" stroke-width="1"></path><path d="M0.3125 0.9125h1.2a1.7999999999999998 1.7999999999999998 0 0 1 1.7937500000000002 1.7937500000000002v3.59375" fill="none" stroke="#606060" stroke-miterlimit="10" stroke-width="1"></path><path d="m9.89375 5.706250000000001 0 3.59375 -1.7937500000000002 0" fill="none" stroke="#606060" stroke-miterlimit="10" stroke-width="1"></path><path d="m3.30625 7.112500000000001 0 -0.8125 0 -2.39375 7.7875000000000005 0" fill="none" stroke="#606060" stroke-miterlimit="10" stroke-width="1"></path><path d="m12.293750000000001 12.893749999999999 -0.6 -3.59375 -3.59375 0" fill="none" stroke="#606060" stroke-miterlimit="10" stroke-width="1"></path><path d="m14.6875 12.893749999999999 -2.39375 0" fill="none" stroke="#606060" stroke-miterlimit="10" stroke-width="1"></path></g></svg>