<svg viewBox="-0.5 -0.5 16 16" fill="#606060" xmlns="http://www.w3.org/2000/svg" id="Ancient-Pavilion-Line--Streamline-Remix.svg" height="16" width="16"><desc>Ancient Pavilion Line Streamline Icon: https://streamlinehq.com</desc><path d="M0.94741875 4.9229875c0.1025625 1.22061875 0.98333125 2.2345125 2.1776187499999997 2.5067v4.446125h-1.25v1.25H13.1250625v-1.25h-1.25v-4.446125c1.19425 -0.2721875 2.0750625 -1.2860812499999998 2.1775625 -2.5067 -0.3065 0.051250000000000004 -0.6168125 0.0770125 -0.9275625 0.0770125 -2.3838125 0 -4.50875 -1.50255 -5.3033125000000005 -3.75h-0.6434375000000001C6.38375 3.4974499999999997 4.2588187500000005 5 1.8750375 5c-0.3108 0 -0.62106875 -0.0257625 -0.9276187499999999 -0.0770125ZM10.6250625 11.8758125H4.3750375V7.5H10.6250625v4.375812499999999Zm0.9721875000000001 -5.6648812500000005L11.425812500000001 6.25H3.5742374999999997l-0.1714125 -0.03906875c-0.08504375 -0.01938125 -0.16651875 -0.04471875 -0.24441875 -0.07601250000000001 0.96041875 -0.17729999999999999 1.855725 -0.55946875 2.685925 -1.14650625 0.66035625 -0.46696875 1.21229375 -1.0159875 1.6557312499999999 -1.64706875 0.44343750000000004 0.63108125 0.9953125 1.1801 1.6556875 1.64706875 0.8301875000000001 0.5870375 1.7255 0.9692062499999999 2.6859375 1.14650625 -0.077875 0.03129375 -0.159375 0.056631249999999994 -0.2444375 0.07601250000000001Z" stroke-width="1"></path></svg>