<svg xmlns="http://www.w3.org/2000/svg" fill="none" viewBox="-0.5 -0.5 24 24" id="Hotel--Streamline-Outlined-Material-Symbols.svg" height="24" width="24"><desc>Hotel Streamline Icon: https://streamlinehq.com</desc><path fill="#606060" d="M0.9583333333333334 18.208333333333336V4.192708333333334h1.4375v9.439583333333333h8.457291666666666V6.229166666666667h7.7145833333333345c0.9553145833333334 0 1.77315625 0.3401125 2.453572916666667 1.0203854166666668C21.701554166666668 7.92996875 22.041666666666668 8.747810416666667 22.041666666666668 9.703125V18.208333333333336h-1.4375v-3.138541666666667H2.3958333333333335V18.208333333333336H0.9583333333333334Zm5.510416666666667 -5.965625c-0.71875 0 -1.3216854166666667 -0.24356041666666667 -1.8088541666666667 -0.7307291666666667C4.172741458333333 11.024810416666666 3.9291666666666667 10.421875 3.9291666666666667 9.703125s0.24357479166666665 -1.3216854166666667 0.7307291666666667 -1.8088541666666667C5.147064583333333 7.407102083333333 5.75 7.163541666666666 6.46875 7.163541666666666s1.3216854166666667 0.24356041666666667 1.8088541666666667 0.7307291666666667c0.48716875 0.48716875 0.7307291666666667 1.0901041666666667 0.7307291666666667 1.8088541666666667s-0.24356041666666667 1.3216854166666667 -0.7307291666666667 1.8088541666666667C7.790435416666666 11.999147916666667 7.1875 12.242708333333335 6.46875 12.242708333333335Zm5.821875 1.3895833333333334H20.604166666666668v-3.9291666666666667c0 -0.5600020833333333 -0.19942916666666669 -1.0394083333333335 -0.5982395833333334 -1.43821875C19.607116666666666 7.8660958333333335 19.12771041666667 7.666666666666667 18.567708333333336 7.666666666666667h-6.277083333333334v5.965625Zm-5.821875 -2.8270833333333334c0.30345625 0 0.5630208333333334 -0.1078125 0.7786458333333334 -0.32343750000000004 0.215625 -0.215625 0.32343750000000004 -0.4751895833333334 0.32343750000000004 -0.7786458333333334s-0.1078125 -0.5630208333333334 -0.32343750000000004 -0.7786458333333334c-0.215625 -0.215625 -0.4751895833333334 -0.32343750000000004 -0.7786458333333334 -0.32343750000000004s-0.5630208333333334 0.1078125 -0.7786458333333334 0.32343750000000004c-0.215625 0.215625 -0.32343750000000004 0.4751895833333334 -0.32343750000000004 0.7786458333333334s0.1078125 0.5630208333333334 0.32343750000000004 0.7786458333333334c0.215625 0.215625 0.4751895833333334 0.32343750000000004 0.7786458333333334 0.32343750000000004Z" stroke-width="1"></path></svg>