<svg viewBox="-0.5 -0.5 16 16" fill="#606060" xmlns="http://www.w3.org/2000/svg" id="Instagram-Line--Streamline-Remix.svg" height="16" width="16"><desc>Instagram Line Streamline Icon: https://streamlinehq.com</desc><path d="M7.500624999999999 5.625c-1.0358749999999999 0 -1.8750125 0.8394375 -1.8750125 1.875 0 1.0358125 0.83945 1.875 1.8750125 1.875 1.0358125 0 1.875 -0.8394375 1.875 -1.875 0 -1.0358125 -0.8394375 -1.875 -1.875 -1.875Zm0 -1.25c1.7252500000000002 0 3.125 1.3981875 3.125 3.125 0 1.7253125 -1.3981875 3.125 -3.125 3.125 -1.72530625 0 -3.1250125 -1.3981875 -3.1250125 -3.125 0 -1.72529375 1.3981875 -3.125 3.1250125 -3.125Zm4.0625 -0.15678125c0 0.43131875 -0.3505 0.7812625 -0.78125 0.7812625 -0.43131250000000004 0 -0.78125 -0.35048124999999997 -0.78125 -0.7812625 0 -0.43078125 0.35043749999999996 -0.78071875 0.78125 -0.78071875 0.4301875 -0.00054375 0.78125 0.34993749999999996 0.78125 0.78071875ZM7.500624999999999 2.5c-1.5465624999999998 0 -1.7986375 0.00409375 -2.51795625 0.036125 -0.49007500000000004 0.023006250000000002 -0.8185874999999999 0.08891875 -1.12381875 0.20741874999999999 -0.27125 0.1052 -0.46691875 0.23081875000000002 -0.6754 0.43929999999999997 -0.20928124999999997 0.20928124999999997 -0.33467499999999994 0.404425 -0.43945 0.6758 -0.11877499999999999 0.30593125 -0.18466875 0.6339250000000001 -0.20726250000000002 1.123325 -0.03234375 0.69003125 -0.036125 0.9311875000000001 -0.036125 2.51803125 0 1.5465624999999998 0.00409375 1.7986250000000001 0.03611875 2.517875 0.02301875 0.48987500000000006 0.08901875000000001 0.818875 0.20723124999999998 1.123375 0.105475 0.271625 0.23135 0.46775 0.43882499999999997 0.67525 0.21010625000000002 0.2098125 0.40583125 0.335625 0.67463125 0.43937499999999996 0.30895 0.1194375 0.63725625 0.1854375 1.1251562499999999 0.208C5.6726125000000005 12.4961875 5.91376875 12.5 7.500624999999999 12.5c1.5465624999999998 0 1.7986250000000001 -0.004125 2.517875 -0.036125 0.4888125 -0.022937500000000003 0.8180624999999999 -0.08912500000000001 1.123375 -0.20725 0.270875 -0.1051875 0.46762499999999996 -0.2315 0.67525 -0.43881249999999994 0.210125 -0.2104375 0.3356875 -0.4056875 0.4395625 -0.675125 0.119125 -0.3078125 0.18525 -0.6365624999999999 0.2078125 -1.124625 0.0323125 -0.6900625 0.036125 -0.93125 0.036125 -2.5180625 0 -1.5465499999999999 -0.004125 -1.7986187500000002 -0.036125 -2.51789375 -0.023 -0.48894374999999995 -0.0891875 -0.8186749999999999 -0.2074375 -1.12386875 -0.10493749999999999 -0.2705 -0.23099999999999998 -0.46676875 -0.4393125 -0.67539375 -0.20962499999999998 -0.20962499999999998 -0.40425 -0.33476249999999996 -0.6758124999999999 -0.43945625 -0.3056875 -0.118675 -0.6341874999999999 -0.1846625 -1.1233125 -0.20725625C9.328625 2.5037812500000003 9.0874375 2.5 7.500624999999999 2.5Zm0 -1.25c1.697875 0 1.909875 0.00625 2.5765624999999996 0.0375 0.6650625 0.030731249999999998 1.11875 0.1359375 1.5171875000000001 0.290625 0.4119375 0.15885625 0.759875 0.37343750000000003 1.10725 0.72083125 0.34687500000000004 0.3474 0.5615 0.69635625 0.7208749999999999 1.10729375 0.154125 0.39791875 0.25937499999999997 0.8520812499999999 0.290625 1.5171875000000001 0.0296875 0.66666875 0.0375 0.87864375 0.0375 2.5765624999999996 0 1.6979374999999999 -0.00625 1.909875 -0.0375 2.5765624999999996 -0.03075 0.665125 -0.1365 1.11875 -0.290625 1.5171875000000001 -0.158875 0.41200000000000003 -0.374 0.759875 -0.7208749999999999 1.1073125 -0.347375 0.34687500000000004 -0.696875 0.5614375 -1.10725 0.7208125 -0.3984375 0.1541875 -0.852125 0.25937499999999997 -1.5171875000000001 0.290625 -0.6666875 0.0296875 -0.8786875 0.0375 -2.5765624999999996 0.0375 -1.69793125 0 -1.9099125 -0.00625 -2.576575 -0.0375 -0.66510625 -0.03075 -1.11823125 -0.1364375 -1.5171875000000001 -0.290625 -0.4114625 -0.158875 -0.7599 -0.37393750000000003 -1.10729375 -0.7208125 -0.34739375000000006 -0.34743749999999995 -0.56145625 -0.696875 -0.72083125 -1.1073125 -0.1546875 -0.3984375 -0.25937499999999997 -0.8520625 -0.290625 -1.5171875000000001 -0.0296875 -0.6666875 -0.0375 -0.878625 -0.0375 -2.5765624999999996 0 -1.6979187500000001 0.00625 -1.90989375 0.0375 -2.5765624999999996 0.030725000000000002 -0.6656249999999999 0.1359375 -1.11875 0.290625 -1.5171875000000001 0.15885 -0.41145624999999997 0.37343750000000003 -0.75989375 0.72083125 -1.10729375C2.6469625000000003 1.9515625 2.9959249999999997 1.7374999999999998 3.4068625000000003 1.578125c0.3984375 -0.1546875 0.8515625 -0.25937499999999997 1.5171875000000001 -0.290625C5.5907125 1.2578125 5.8026937499999995 1.25 7.500624999999999 1.25Z" stroke-width="1"></path></svg>