<svg xmlns="http://www.w3.org/2000/svg" viewBox="-0.5 -0.5 48 48" id="Killer-Shotgun--Streamline-Nasty.svg" height="48" width="48"><desc>Killer Shotgun Streamline Icon: https://streamlinehq.com</desc><g><path d="M45.22183333333333 39.55833333333333 42.3 36.66a4.418 4.418 0 0 0 0.6188333333333333 -2.1933333333333334 3.6738333333333335 3.6738333333333335 0 0 0 -1.175 -2.7416666666666667 4.057666666666666 4.057666666666666 0 0 0 -1.9583333333333333 -1.0966666666666667V28.2h0.7833333333333333a2.303 2.303 0 0 0 2.35 -2.35V13.316666666666666a2.303 2.303 0 0 0 -2.35 -2.35h-0.7833333333333333v-2.35a0.7363333333333333 0.7363333333333333 0 0 0 -0.7833333333333333 -0.7833333333333333h-2.35V5.483333333333333a0.7363333333333333 0.7363333333333333 0 0 0 -0.7833333333333333 -0.7833333333333333h-3.1333333333333333a0.7206666666666667 0.7206666666666667 0 0 0 -0.5483333333333333 0.235 0.7128333333333333 0.7128333333333333 0 0 0 -0.235 0.5483333333333333v2.35h-0.7833333333333333a0.7833333333333333 0.7833333333333333 0 0 0 -0.7833333333333333 0.7833333333333333v9.948333333333332c-0.94 1.8016666666666665 -1.9583333333333333 2.7416666666666667 -3.1333333333333333 2.82 -1.7233333333333334 0.15666666666666668 -3.603333333333333 -1.5666666666666667 -4.5355 -2.7416666666666667A10.112833333333333 10.112833333333333 0 0 0 27.275666666666666 10.183333333333334a9.736833333333333 9.736833333333333 0 0 0 -1.0966666666666667 -4.543333333333333 3.188166666666667 3.188166666666667 0 0 0 1.88 0.6266666666666667c2.7416666666666667 0 5.17 -4.621666666666667 5.412833333333333 -5.17a0.94 0.94 0 0 0 0 -0.7833333333333333 1.1906666666666668 1.1906666666666668 0 0 0 -0.7128333333333333 -0.31333333333333335h-4.7a3.1333333333333333 3.1333333333333333 0 0 0 -3.1333333333333333 3.1333333333333333 1.7233333333333334 1.7233333333333334 0 0 0 0.07833333333333334 0.6266666666666667 10.183333333333334 10.183333333333334 0 0 0 -15.823333333333332 0 1.7233333333333334 1.7233333333333334 0 0 0 0.07833333333333334 -0.6266666666666667 3.1333333333333333 3.1333333333333333 0 0 0 -3.1333333333333333 -3.1333333333333333h-4.7a0.9321666666666666 0.9321666666666666 0 0 0 -0.705 0.39166666666666666 0.7128333333333333 0.7128333333333333 0 0 0 0 0.7833333333333333c0.235 0.47 2.663333333333333 5.091666666666667 5.405 5.091666666666667a3.188166666666667 3.188166666666667 0 0 0 1.88 -0.6266666666666667 9.736833333333333 9.736833333333333 0 0 0 -1.0966666666666667 4.543333333333333 10.347833333333334 10.347833333333334 0 0 0 4.465 8.46L0.8773333333333334 29.21833333333333a0.7833333333333333 0.7833333333333333 0 0 0 0 1.0966666666666667 0.7833333333333333 0.7833333333333333 0 0 0 1.0966666666666667 0l8.538333333333334 -8.616666666666667 -5.875 14.804999999999998a0.7363333333333333 0.7363333333333333 0 0 0 0.07833333333333334 0.705 0.7833333333333333 0.7833333333333333 0 0 0 0.6266666666666667 0.39166666666666666h6.266666666666667v7.05a2.35 2.35 0 0 0 4.7 0v-7.05h1.5666666666666667v7.05a2.35 2.35 0 0 0 4.7 0v-7.05h6.266666666666667a0.9635 0.9635 0 0 0 0.6266666666666667 -0.31333333333333335 0.7833333333333333 0.7833333333333333 0 0 0 0.07833333333333334 -0.705l-5.875 -14.804999999999998a5.820166666666666 5.820166666666666 0 0 0 3.6816666666666666 1.2533333333333334 4.833166666666666 4.833166666666666 0 0 0 3.0549999999999997 -1.5666666666666667V34.46666666666667a0.7128333333333333 0.7128333333333333 0 0 0 0.235 0.5483333333333333l11.75 11.671666666666667a0.8460000000000001 0.8460000000000001 0 0 0 0.5483333333333333 0.235 0.8616666666666667 0.8616666666666667 0 0 0 0.5561666666666666 -0.235l1.7233333333333334 -1.645a3.7835 3.7835 0 0 0 0 -5.483333333333333ZM28.059 1.5666666666666667h3.368333333333333c-0.8538333333333333 1.41 -2.2716666666666665 3.1333333333333333 -3.368333333333333 3.1333333333333333a1.5666666666666667 1.5666666666666667 0 0 1 0 -3.1333333333333333Zm-21.933333333333334 3.1333333333333333c-1.0966666666666667 0 -2.4283333333333332 -1.7233333333333334 -3.368333333333333 -3.1333333333333333h3.368333333333333a1.5666666666666667 1.5666666666666667 0 0 1 0 3.1333333333333333Zm2.35 5.483333333333333a8.616666666666667 8.616666666666667 0 1 1 8.616666666666667 8.616666666666667 8.616666666666667 8.616666666666667 0 0 1 -8.616666666666667 -8.616666666666667Zm6.266666666666667 34.46666666666667a0.7833333333333333 0.7833333333333333 0 0 1 -1.5666666666666667 0v-7.05h1.5666666666666667v7.05Zm6.266666666666667 0a0.7833333333333333 0.7833333333333333 0 0 1 -1.5666666666666667 0v-7.05h1.5666666666666667v7.05Zm6.658333333333333 -8.616666666666667h-21.15l6.58 -16.528333333333336a9.893500000000001 9.893500000000001 0 0 0 3.9949999999999997 0.8616666666666667 9.6115 9.6115 0 0 0 3.9949999999999997 -0.8616666666666667l6.58 16.528333333333336Zm13.003333333333334 -3.2116666666666664a2.256 2.256 0 0 1 0.705 1.645 2.162 2.162 0 0 1 -0.22716666666666666 1.0183333333333333l-1.3395 -1.3316666666666666v-1.88a1.9818333333333331 1.9818333333333331 0 0 1 0.8616666666666667 0.5483333333333333Zm-0.07833333333333334 -6.1883333333333335h-3.9166666666666665v-1.5666666666666667h4.7v0.7833333333333333a0.7363333333333333 0.7363333333333333 0 0 1 -0.7833333333333333 0.7833333333333333Zm-3.9166666666666665 -10.966666666666667h4.7v1.5666666666666667h-4.7Zm0 3.1333333333333333h4.7v1.5666666666666667h-4.7Zm0 3.1333333333333333h4.7v1.5666666666666667h-4.7Zm4.7 -8.616666666666667v0.7833333333333333h-4.7v-1.5666666666666667h3.9166666666666665a0.7363333333333333 0.7363333333333333 0 0 1 0.7833333333333333 0.7833333333333333Zm-7.833333333333333 -7.05h1.5666666666666667v1.5666666666666667h-1.5666666666666667V6.266666666666667Zm-0.7833333333333333 3.1333333333333333h5.483333333333333v1.5666666666666667h-2.35a0.7833333333333333 0.7833333333333333 0 0 0 -0.7833333333333333 0.7833333333333333v15.666666666666666a0.7833333333333333 0.7833333333333333 0 0 0 0.7833333333333333 0.7833333333333333h2.35v5.483333333333333h-6.266666666666667V9.4Zm11.358333333333333 34.545 -1.175 1.0966666666666667L33.08016666666666 35.25h5.64l5.405 5.405a2.4283333333333332 2.4283333333333332 0 0 1 0 3.29Z" fill="#606060" fill-rule="evenodd" stroke-width="1"></path><path d="M22.575666666666667 11.75a0.7363333333333333 0.7363333333333333 0 0 0 -0.7833333333333333 -0.7833333333333333h-9.4a0.7363333333333333 0.7363333333333333 0 0 0 -0.7833333333333333 0.7833333333333333 5.483333333333333 5.483333333333333 0 0 0 10.966666666666667 0Zm-9.321666666666667 0.7833333333333333h7.6845a3.775666666666667 3.775666666666667 0 0 1 -3.8383333333333334 3.1333333333333333 3.7835 3.7835 0 0 1 -3.846166666666667 -3.1333333333333333Z" fill="#606060" fill-rule="evenodd" stroke-width="1"></path><path d="M13.175666666666666 9.4a1.5666666666666667 1.5666666666666667 0 1 0 -1.5666666666666667 -1.5666666666666667 1.5666666666666667 1.5666666666666667 0 0 0 1.5666666666666667 1.5666666666666667" fill="#606060" fill-rule="evenodd" stroke-width="1"></path><path d="M21.009 9.4a1.5666666666666667 1.5666666666666667 0 1 0 -1.5666666666666667 -1.5666666666666667 1.5666666666666667 1.5666666666666667 0 0 0 1.5666666666666667 1.5666666666666667" fill="#606060" fill-rule="evenodd" stroke-width="1"></path></g></svg>