<svg viewBox="-0.5 -0.5 16 16" fill="none" xmlns="http://www.w3.org/2000/svg" id="Swimmer--Streamline-Unicons.svg" height="16" width="16"><desc>Swimmer Streamline Icon: https://streamlinehq.com</desc><path d="M11.094124999999998 5.1531875000000005c0.287875 0 0.56925 -0.08531250000000001 0.8085625000000001 -0.24525000000000002s0.42593749999999997 -0.38725000000000004 0.5360625 -0.653125c0.110125 -0.2659375 0.1389375 -0.558625 0.08281250000000001 -0.8409374999999999 -0.056125 -0.28231249999999997 -0.19474999999999998 -0.541625 -0.39831249999999996 -0.7451249999999999 -0.20356249999999998 -0.20356249999999998 -0.46287500000000004 -0.3421875 -0.7451874999999999 -0.39831249999999996 -0.28231249999999997 -0.056187499999999994 -0.5749375 -0.027375 -0.8408749999999999 0.08281250000000001 -0.2659375 0.110125 -0.49325 0.2966875 -0.653125 0.536 -0.1599375 0.239375 -0.24531250000000002 0.52075 -0.24531250000000002 0.8085625000000001 0 0.386 0.1533125 0.7561875 0.42631250000000004 1.029125 0.2729375 0.2729375 0.643125 0.42625 1.0290625 0.42625ZM0.6954375 8.529687500000001c0.1441875 0.046125 0.2831875 0.107125 0.4148125 0.18187499999999998 0.4525625 0.26475 0.9674375000000001 0.4043125 1.4917500000000001 0.4043125s1.0391875000000002 -0.1395625 1.4917500000000001 -0.4043125c0.284625 -0.15925 0.6053125 -0.2429375 0.9314374999999999 -0.2429375s0.646875 0.0836875 0.9314374999999999 0.2429375l0.1528125 0.0728125c0.4415625 0.2149375 0.9289999999999999 0.3186875 1.4198125 0.30224999999999996 0.4908125 -0.0165 0.9702500000000001 -0.15275 1.396375 -0.396875 0.2845625 -0.15931250000000002 0.6053125 -0.2429375 0.9314374999999999 -0.2429375 0.326125 0 0.6468125 0.083625 0.9314374999999999 0.2429375 0.461125 0.26356250000000003 0.9824375000000001 0.4039375 1.5136250000000002 0.40750000000000003 0.5125 -0.0053125 1.0145625 -0.145875 1.4553749999999999 -0.40750000000000003 0.1315625 -0.0748125 0.2705625 -0.13575 0.41474999999999995 -0.18193750000000003 0.1075625 -0.0073125 0.21212499999999998 -0.0385625 0.306125 -0.0913125 0.0940625 -0.052750000000000005 0.1751875 -0.12575 0.2375625 -0.21368749999999997 0.0623125 -0.0879375 0.1043125 -0.18862500000000001 0.123 -0.29481250000000003 0.01875 -0.10618749999999999 0.0135625 -0.2151875 -0.0150625 -0.3191875 -0.028562499999999998 -0.103875 -0.07993750000000001 -0.20025 -0.1503125 -0.281875 -0.0703125 -0.081625 -0.15800000000000003 -0.1466875 -0.2565 -0.190375 -0.09862499999999999 -0.043687500000000004 -0.2056875 -0.06493750000000001 -0.3134375 -0.062125 -0.10775 0.0027500000000000003 -0.2135625 0.029437500000000002 -0.30974999999999997 0.07806249999999999 -0.2539375 0.0788125 -0.4980625 0.18625 -0.7276874999999999 0.32018749999999996 -0.23231249999999998 0.134125 -0.495875 0.20475 -0.7641249999999999 0.20475 -0.26818749999999997 0 -0.53175 -0.07062500000000001 -0.7640625 -0.20475 -0.5040625 -0.284375 -1.0730625 -0.43374999999999997 -1.6518125000000001 -0.43374999999999997 -0.5788125000000001 0 -1.1478125000000001 0.14937499999999998 -1.651875 0.43374999999999997 -0.0685 0.0335 -0.1389375 0.062625 -0.2110625 0.08731249999999999l1.13525 -1.1351875c0.026 -0.0336875 0.047999999999999994 -0.0703125 0.0655 -0.109125 0.032875 -0.0358125 0.062125 -0.0748125 0.08731249999999999 -0.1164375 0.0034374999999999996 -0.046 0.0034374999999999996 -0.09225 0 -0.1383125 0.004125 -0.0459375 0.004125 -0.09225 0 -0.13825 0.0035 -0.0435625 0.0035 -0.08737500000000001 0 -0.13093749999999998 0.004125 -0.046 0.004125 -0.09231249999999999 0 -0.13825 -0.021562500000000002 -0.0428125 -0.045875000000000006 -0.084125 -0.07275000000000001 -0.12375 -0.0189375 -0.041875 -0.043375000000000004 -0.08106250000000001 -0.0728125 -0.116375l-2.234 -2.4232500000000003c-0.058812500000000004 -0.0640625 -0.1275625 -0.11812500000000001 -0.20375000000000001 -0.1600625 -0.0506875 -0.006750000000000001 -0.1020625 -0.006750000000000001 -0.1528125 0 -0.0409375 -0.0066875 -0.08274999999999999 -0.0066875 -0.12368749999999999 0 -0.096875 -0.039 -0.20174999999999998 -0.054000000000000006 -0.305625 -0.043687500000000004L3.5698125000000003 3.7269375c-0.181375 0.0656875 -0.32918749999999997 0.2006875 -0.4110625 0.375375 -0.081875 0.17462499999999997 -0.09106249999999999 0.37462500000000004 -0.025500000000000002 0.5560625 0.065625 0.181375 0.2006875 0.32925000000000004 0.37531250000000005 0.411125 0.17468750000000002 0.081875 0.3746875 0.091 0.556125 0.025500000000000002l2.132125 -0.778625 1.4553749999999999 1.5426875 -1.382625 1.3825625c-0.46325 -0.18 -0.9606874999999999 -0.2551875 -1.4564374999999998 -0.2199375 -0.49575 0.03525 -0.9775625 0.1799375 -1.4106874999999999 0.4236875 -0.23224999999999998 0.134125 -0.4958125 0.2048125 -0.7640625 0.2048125 -0.26825 0 -0.53175 -0.0706875 -0.7640625 -0.2048125 -0.229625 -0.1339375 -0.47375 -0.241375 -0.7276874999999999 -0.320125 -0.093125 -0.034749999999999996 -0.1923125 -0.05 -0.2915625 -0.044937500000000005 -0.09925 0.005 -0.19643750000000001 0.0304375 -0.2855 0.0744375 -0.08906249999999999 0.044125 -0.1681875 0.1059375 -0.23243750000000002 0.1818125 -0.06425 0.07575 -0.1123125 0.16393749999999999 -0.1411875 0.2590625 -0.028874999999999998 0.09506250000000001 -0.0379375 0.1950625 -0.026687500000000003 0.29381250000000003 0.01125 0.09868750000000001 0.042562499999999996 0.1940625 0.092125 0.28025 0.0495 0.08612500000000001 0.1161875 0.16125 0.1958125 0.2206875 0.0796875 0.059375 0.1706875 0.10187500000000001 0.26737500000000003 0.12475l-0.029125 0.0145625Zm13.0984375 2.2485625000000002c-0.253875 0.0788125 -0.498 0.1861875 -0.7276874999999999 0.32018749999999996 -0.23224999999999998 0.1340625 -0.495875 0.20475 -0.7640625 0.20475 -0.26825 0 -0.5318125 -0.0706875 -0.7640625 -0.20475 -0.5040625 -0.2844375 -1.0730625 -0.43381250000000005 -1.651875 -0.43381250000000005 -0.5788125000000001 0 -1.1478125000000001 0.14937499999999998 -1.651875 0.43381250000000005 -0.23425 0.136125 -0.5004375 0.2078125 -0.7713125 0.2078125 -0.2709375 0 -0.5371250000000001 -0.0716875 -0.7713749999999999 -0.2078125 -0.5040625 -0.2844375 -1.0730625 -0.43381250000000005 -1.651875 -0.43381250000000005 -0.57875 0 -1.14775 0.14937499999999998 -1.6518125000000001 0.43381250000000005 -0.23231249999999998 0.1340625 -0.495875 0.20475 -0.7641249999999999 0.20475 -0.26825 0 -0.53175 -0.0706875 -0.7640625 -0.20475 -0.229625 -0.134 -0.47375 -0.241375 -0.7276874999999999 -0.32018749999999996 -0.0930625 -0.034749999999999996 -0.1923125 -0.05 -0.2915625 -0.044937500000000005 -0.09925 0.005062499999999999 -0.19643750000000001 0.0304375 -0.2855 0.0744375 -0.08906249999999999 0.044125 -0.1681875 0.106 -0.23243750000000002 0.1818125 -0.06425 0.07575 -0.1123125 0.16393749999999999 -0.1411875 0.2590625 -0.028874999999999998 0.09506250000000001 -0.0379375 0.1950625 -0.026687500000000003 0.29381250000000003 0.01125 0.09868750000000001 0.042624999999999996 0.1940625 0.092125 0.28025 0.049562499999999995 0.08612500000000001 0.1161875 0.16125 0.19587500000000002 0.2206875 0.079625 0.059375 0.17062500000000003 0.10187500000000001 0.2673125 0.12475 0.1441875 0.046125 0.2831875 0.107125 0.4148125 0.18193750000000003 0.4525625 0.26468749999999996 0.9674375000000001 0.40425 1.4917500000000001 0.40425s1.0391875000000002 -0.1395625 1.4917500000000001 -0.40425c0.284625 -0.15931250000000002 0.6053125 -0.243 0.9314374999999999 -0.243s0.646875 0.0836875 0.9314374999999999 0.243c0.4565 0.261 0.97325 0.39831249999999996 1.4990625 0.39831249999999996 0.5258125 0 1.0425624999999998 -0.1373125 1.4990625 -0.39831249999999996 0.2845625 -0.15931250000000002 0.6052500000000001 -0.243 0.9314374999999999 -0.243 0.326125 0 0.6468125 0.0836875 0.9314374999999999 0.243 0.461125 0.26356250000000003 0.9824375000000001 0.4039375 1.5135625 0.40750000000000003 0.5125625 -0.0053125 1.0146249999999999 -0.1459375 1.4554375 -0.40750000000000003 0.1315625 -0.0748125 0.2705 -0.1358125 0.41474999999999995 -0.18193750000000003 0.09175000000000001 -0.02775 0.17712499999999998 -0.07325 0.25125000000000003 -0.1339375 0.0741875 -0.06075 0.1356875 -0.135375 0.18093749999999997 -0.219875 0.045250000000000005 -0.08449999999999999 0.07343749999999999 -0.1770625 0.08293750000000001 -0.27237500000000003 0.0095625 -0.09537500000000002 0.000125 -0.19168749999999998 -0.0275625 -0.2834375 -0.02775 -0.0916875 -0.0731875 -0.17712499999999998 -0.134 -0.25125000000000003 -0.060687500000000005 -0.0741875 -0.135375 -0.1355625 -0.21981250000000002 -0.18093749999999997 -0.08449999999999999 -0.045250000000000005 -0.1770625 -0.07343749999999999 -0.2724375 -0.08293750000000001 -0.0953125 -0.0095 -0.191625 -0.000125 -0.28337500000000004 0.0275625v0.0073125Z" fill="#606060" stroke-width="1"></path></svg>