<svg id="Maple-Leaf--Streamline-Atlas.svg" xmlns="http://www.w3.org/2000/svg" viewBox="-0.5 -0.5 16 16" height="16" width="16"><desc>Maple Leaf Streamline Icon: https://streamlinehq.com</desc><defs></defs><path d="m7.5 12.3 -4.7749999999999995 0 0.6 -1.7874999999999999 -1.7874999999999999 -1.7874999999999999 0.59375 -1.2 0 -0.59375 0.59375 0 1.1937499999999999 -0.59375 1.1937499999999999 0.59375 -0.59375 -3.5812500000000003 1.7874999999999999 0L7.5 1.5625l1.1937499999999999 1.7874999999999999 1.7874999999999999 0 -0.59375 3.5812500000000003 1.1937499999999999 -0.59375 1.1937499999999999 0.59375 0.59375 0 0 0.59375 0.6 1.2 -1.7937500000000002 1.7874999999999999 0.6 1.7874999999999999 -4.7749999999999995 0" fill="none" stroke="#606060" stroke-miterlimit="10" stroke-width="1"></path><path d="m7.5 5.7375 0 8.95" fill="none" stroke="#606060" stroke-miterlimit="10" stroke-width="1"></path><path d="M3.9187499999999997 8.71875 7.5 11.10625" fill="none" stroke="#606060" stroke-miterlimit="10" stroke-width="1"></path><path d="M11.08125 8.125 7.5 10.5125" fill="none" stroke="#606060" stroke-miterlimit="10" stroke-width="1"></path></svg>