<svg id="Landscape--Streamline-Atlas.svg" xmlns="http://www.w3.org/2000/svg" viewBox="-0.5 -0.5 16 16" height="16" width="16"><desc>Landscape Streamline Icon: https://streamlinehq.com</desc><defs></defs><path d="m0.68125 13.75 13.6375 0" fill="none" stroke="#606060" stroke-miterlimit="10" stroke-width="1"></path><path d="m0.96875 7.78125 1.5812499999999998 -1.5812499999999998a1.36875 1.36875 0 0 1 0.9750000000000001 -0.40625 1.35 1.35 0 0 1 0.96875 0.40625L12.04375 13.75" fill="none" stroke="#606060" stroke-miterlimit="10" stroke-width="1"></path><path d="m7.5 9.20625 1.3 -1.30625a1.3875000000000002 1.3875000000000002 0 0 1 0.9750000000000001 -0.4 1.375 1.375 0 0 1 0.96875 0.4l3.5749999999999997 3.5749999999999997" fill="none" stroke="#606060" stroke-miterlimit="10" stroke-width="1"></path><path d="M6.3625 2.6687499999999997a1.41875 1.41875 0 1 0 2.8375 0 1.41875 1.41875 0 1 0 -2.8375 0" fill="none" stroke="#606060" stroke-miterlimit="10" stroke-width="1"></path></svg>