<svg id="Travel-Luggage--Streamline-Atlas.svg" xmlns="http://www.w3.org/2000/svg" viewBox="-0.5 -0.5 16 16" height="16" width="16"><desc>Travel Luggage Streamline Icon: https://streamlinehq.com</desc><defs></defs><path d="M7.5 4.525A3.5875000000000004 3.5875000000000004 0 0 1 11.087499999999999 8.125v4.1875a1.1937499999999999 1.1937499999999999 0 0 1 -1.1937499999999999 1.1937499999999999H5.10625a1.1937499999999999 1.1937499999999999 0 0 1 -1.1937499999999999 -1.1937499999999999V8.125A3.5875000000000004 3.5875000000000004 0 0 1 7.5 4.525Z" fill="none" stroke="#606060" stroke-miterlimit="10" stroke-width="1"></path><path d="m5.706250000000001 14.6875 0 -1.1937499999999999" fill="none" stroke="#606060" stroke-miterlimit="10" stroke-width="1"></path><path d="m9.29375 14.6875 0 -1.1937499999999999" fill="none" stroke="#606060" stroke-miterlimit="10" stroke-width="1"></path><path d="m5.706250000000001 5.125 0 -4.1875 3.5875000000000004 0 0 4.1875" fill="none" stroke="#606060" stroke-miterlimit="10" stroke-width="1"></path><path d="m4.5125 0.9375 5.9750000000000005 0" fill="none" stroke="#606060" stroke-miterlimit="10" stroke-width="1"></path><path d="m5.706250000000001 8.1125 3.5875000000000004 0" fill="none" stroke="#606060" stroke-miterlimit="10" stroke-width="1"></path><path d="m8.100000000000001 9.90625 0 -1.7937500000000002" fill="none" stroke="#606060" stroke-miterlimit="10" stroke-width="1"></path></svg>