<svg xmlns="http://www.w3.org/2000/svg" fill="none" viewBox="-0.5 -0.5 24 24" id="Downhill-Skiing--Streamline-Outlined-Material-Symbols.svg" height="24" width="24"><desc>Downhill Skiing Streamline Icon: https://streamlinehq.com</desc><path fill="#606060" d="M17.753029166666668 22.041666666666668c-0.38333333333333336 0 -0.7666666666666667 -0.031960416666666665 -1.15 -0.09583333333333334 -0.38333333333333336 -0.06387291666666667 -0.7586645833333333 -0.15175208333333334 -1.1260416666666668 -0.2635416666666667l-13.536458333333334 -4.935416666666667 0.31145833333333334 -0.9104166666666667 6.923958333333333 2.515625 1.6770833333333335 -4.336458333333334 -3.809375 -3.9770833333333337c-0.36737708333333335 -0.41529375 -0.5111270833333333 -0.8864583333333335 -0.43125 -1.4135416666666667 0.07987708333333333 -0.5270833333333333 0.35137291666666665 -0.9263729166666667 0.8145833333333333 -1.1979166666666667l3.713541666666667 -2.15625c0.22362708333333334 -0.12779375 0.4632104166666667 -0.19564375 0.71875 -0.20364583333333333 0.2555395833333333 -0.008002083333333333 0.49512291666666675 0.027935416666666667 0.71875 0.1078125 0.22362708333333334 0.07987708333333333 0.4272729166666667 0.20762291666666668 0.6109375 0.38333333333333336 0.18366458333333333 0.17571041666666667 0.3154354166666667 0.38333333333333336 0.3953125 0.6229166666666667l0.31145833333333334 1.0302083333333334c0.27154375000000003 0.8625 0.66685625 1.5572916666666667 1.1859375 2.084375 0.5190812499999999 0.5270833333333333 1.1539770833333334 0.9184187500000001 1.9046875 1.1739583333333334l0.503125 -1.5333333333333334 0.9104166666666667 0.2635416666666667 -0.9343750000000001 2.8989583333333333c-1.0861270833333334 -0.22362708333333334 -2.0364583333333335 -0.6548770833333334 -2.8510416666666667 -1.2937500000000002 -0.8145833333333333 -0.6388729166666667 -1.4375 -1.5013729166666667 -1.8687500000000001 -2.5875000000000004l-3.1625 1.8208333333333333 2.9708333333333337 3.4739583333333335 -2.0364583333333335 5.31875 3.426041666666667 1.2458333333333333 2.2520833333333337 -6.995833333333334c0.15970625 0.04791666666666667 0.31145833333333334 0.09185625000000001 0.4552083333333333 0.13177083333333334 0.14375 0.03991458333333334 0.2875 0.07585208333333333 0.43125 0.1078125l-2.2520833333333337 7.091666666666668 0.9822916666666667 0.33541666666666664c0.30345625 0.11178958333333334 0.6149145833333334 0.19564375 0.9343750000000001 0.2515625 0.31946041666666664 0.05591875 0.6548770833333334 0.08385416666666666 1.00625 0.08385416666666666 0.4632104166666667 0 0.9104166666666667 -0.04393958333333334 1.3416666666666666 -0.13177083333333334 0.43125 -0.08783125 0.8544979166666667 -0.23560625000000002 1.2697916666666667 -0.44322916666666673l0.71875 0.71875c-0.5270833333333333 0.27154375000000003 -1.0621687499999999 0.4751895833333334 -1.6052083333333333 0.6109375 -0.5430395833333334 0.13574791666666666 -1.1180395833333334 0.20364583333333333 -1.725 0.20364583333333333Zm-1.7489583333333334 -16.147916666666667c-0.4791666666666667 0 -0.8904354166666667 -0.17168541666666667 -1.2338541666666667 -0.5151041666666667 -0.34341875 -0.34341875 -0.5151041666666667 -0.7546875 -0.5151041666666667 -1.2338541666666667 0 -0.4791666666666667 0.17168541666666667 -0.8904497916666667 0.5151041666666667 -1.2338541666666667 0.34341875 -0.34340437500000004 0.7546875 -0.5151041666666667 1.2338541666666667 -0.5151041666666667 0.4791666666666667 0 0.8904354166666667 0.17169979166666666 1.2338541666666667 0.5151041666666667 0.34341875 0.34340437500000004 0.5151041666666667 0.7546875 0.5151041666666667 1.2338541666666667 0 0.4791666666666667 -0.17168541666666667 0.8904354166666667 -0.5151041666666667 1.2338541666666667 -0.34341875 0.34341875 -0.7546875 0.5151041666666667 -1.2338541666666667 0.5151041666666667Z" stroke-width="1"></path></svg>