<svg xmlns="http://www.w3.org/2000/svg" viewBox="-0.5 -0.5 16 16" fill="#606060" id="Soccer-Ball-Fill--Streamline-Phosphor-Fill.svg" height="16" width="16"><desc>Soccer Ball Fill Streamline Icon: https://streamlinehq.com</desc><path d="M7.5 0.15c-5.65803515625 0 -9.194302734375 6.124998046875 -6.365285156250001 11.025 2.82901171875 4.900001953125 9.901552734375 4.900001953125 12.730570312500001 0C14.510384765625 10.057658203125 14.85 8.790193359375 14.85 7.5 14.845716796875 3.442482421875 11.557517578125 0.1542890625 7.5 0.15Zm0.5653828125 2.783103515625 1.75198828125 -1.204974609375c1.003083984375 0.40406835937499996 1.884123046875 1.061560546875 2.55694921875 1.9081757812500002l-0.5653828125 1.9039277343749998c-0.0141328125 0 -0.028974609374999998 0.007072265625 -0.04311328125 0.012017578125000001l-1.6127578125 0.5236875c-0.024193359375 0.007740234375 -0.047812499999999994 0.017185546875 -0.070669921875 0.028271484375l-2.0170136718749996 -1.3873125V2.933103515625ZM5.18475 1.72812890625l1.7498671875 1.204974609375v1.78379296875l-2.01842578125 1.39013671875c-0.022857421875 -0.0110859375 -0.0464765625 -0.02053125 -0.070669921875 -0.028265625l-1.612763671875 -0.5236875c-0.0141328125 -0.004951171875 -0.028974609374999998 -0.008484375 -0.043107421875 -0.012017578125000001l-0.5653828125 -1.90393359375C3.297720703125 2.790990234375 4.180060546875 2.1324609375 5.18475 1.72812890625Zm-0.91875 9.1231875H2.263125c-0.586283203125 -0.9115546875 -0.92239453125 -1.9613261718750001 -0.9745839843749999 -3.04388671875l1.55480859375 -1.192962890625c0.013376953125 0.005912109375 0.02705859375 0.011103515625000001 0.0409921875 0.015544921875l1.613466796875 0.524396484375c0.021568359375 0.006515625 0.043517578125000005 0.01170703125 0.06572460937499999 0.015544921875l0.7625625 2.22055078125c-0.010599609375000001 0.012720703125 -0.021205078125 0.02544140625 -0.031095703125 0.03887109375l-0.9964921874999999 1.37176171875c-0.011736328125 0.016125 -0.022587890625 0.032876953125000004 -0.0325078125 0.0501796875Zm4.8375703125 2.655896484375c-1.050732421875 0.27985546875 -2.1564082031250003 0.27985546875 -3.207140625 0l-0.710970703125 -2.0071171875c0.0091875 -0.01130859375 0.019078125 -0.021908203125 0.0275625 -0.033919921874999995l0.9971953124999999 -1.3724765625c0.011730468749999999 -0.015884765625000002 0.022582031250000002 -0.032396484375 0.0325078125 -0.049470703125h2.51455078125c0.00992578125 0.017074218749999998 0.020777343750000003 0.0335859375 0.0325078125 0.049470703125l0.9971953124999999 1.3724765625c0.008484375 0.012011718749999999 0.018375 0.022611328125 0.0275625 0.033919921874999995Zm1.6304296875 -2.658017578125c-0.009919921875000001 -0.017302734375 -0.020771484375 -0.034048828125 -0.0325078125 -0.050173828125l-0.9972011718749999 -1.369646484375c-0.009890625 -0.013429687499999999 -0.020490234375 -0.026150390625 -0.031095703125 -0.03887109375l0.7625625 -2.220544921875c0.022207031250000002 -0.0038437500000000004 0.04415625 -0.00903515625 0.06572460937499999 -0.015550781250000001l1.613466796875 -0.524390625c0.01393359375 -0.004447265624999999 0.027615234375 -0.009638671875000001 0.0409921875 -0.015550781250000001l1.55480859375 1.192962890625c-0.052189453125 1.082560546875 -0.38830078125 2.1323320312500003 -0.9745839843749999 3.04388671875Z" stroke-width="1"></path></svg>