<svg xmlns="http://www.w3.org/2000/svg" fill="#606060" class="bi bi-person-walking" viewBox="0 0 16 16" id="Person-Walking--Streamline-Bootstrap.svg" height="16" width="16"><desc>Person Walking Streamline Icon: https://streamlinehq.com</desc><path d="M9.5 1.5a1.5 1.5 0 1 1 -3 0 1.5 1.5 0 0 1 3 0M6.44 3.752A0.75 0.75 0 0 1 7 3.5h1.445c0.742 0 1.32 0.643 1.243 1.38l-0.43 4.083a1.8 1.8 0 0 1 -0.088 0.395l-0.318 0.906 0.213 0.242a0.8 0.8 0 0 1 0.114 0.175l2 4.25a0.75 0.75 0 1 1 -1.357 0.638l-1.956 -4.154 -1.68 -1.921A0.75 0.75 0 0 1 6 8.96l0.138 -2.613 -0.435 0.489 -0.464 2.786a0.75 0.75 0 1 1 -1.48 -0.246l0.5 -3a0.75 0.75 0 0 1 0.18 -0.375l2 -2.25Z" stroke-width="1"></path><path d="M6.25 11.745v-1.418l1.204 1.375 0.261 0.524a0.8 0.8 0 0 1 -0.12 0.231l-2.5 3.25a0.75 0.75 0 1 1 -1.19 -0.914zm4.22 -4.215 -0.494 -0.494 0.205 -1.843 0.006 -0.067 1.124 1.124h1.44a0.75 0.75 0 0 1 0 1.5H11a0.75 0.75 0 0 1 -0.531 -0.22Z" stroke-width="1"></path></svg>